<?xml version="1.0" encoding="UTF-8" standalone="no"?>
<svg
   width="572.56"
   height="568.493"
   viewBox="0 0 429.42 426.37"
   class="displayed_equation"
   version="1.1"
   id="svg752"
   sodipodi:docname="ionisation.svg"
   inkscape:version="1.1.2 (0a00cf5339, 2022-02-04)"
   xmlns:inkscape="http://www.inkscape.org/namespaces/inkscape"
   xmlns:sodipodi="http://sodipodi.sourceforge.net/DTD/sodipodi-0.dtd"
   xmlns:xlink="http://www.w3.org/1999/xlink"
   xmlns="http://www.w3.org/2000/svg"
   xmlns:svg="http://www.w3.org/2000/svg">
  <sodipodi:namedview
     id="namedview754"
     pagecolor="#ffffff"
     bordercolor="#666666"
     borderopacity="1.0"
     inkscape:pageshadow="2"
     inkscape:pageopacity="0.0"
     inkscape:pagecheckerboard="0"
     showgrid="false"
     inkscape:zoom="0.89431144"
     inkscape:cx="290.72646"
     inkscape:cy="134.74053"
     inkscape:window-width="1860"
     inkscape:window-height="1136"
     inkscape:window-x="0"
     inkscape:window-y="0"
     inkscape:window-maximized="1"
     inkscape:current-layer="svg752" />
  <defs
     id="defs566">
    <clipPath
       id="svg840185315807tikz_00001b">
      <path
         d="M 0.695313 0.105469 L 18.804688 0.105469 L 18.804688 18 L 0.695313 18 Z M 0.695313 0.105469"
         id="path2" />
    </clipPath>
    <clipPath
       id="svg840185315807tikz_00001c">
      <path
         d="M 0.695313 0.105469 L 18.804688 0.105469 L 18.804688 18.210938 L 0.695313 18.210938 Z M 0.695313 0.105469"
         id="path5" />
    </clipPath>
    <clipPath
       id="svg840185315807tikz_00001a">
      <path
         d="M0 0H19V19H0z"
         id="path8" />
    </clipPath>
    <g
       id="svg840185315807tikz_00001aM"
       clip-path="url(#svg840185315807tikz_00001a)">
      <g
         clip-path="url(#svg840185315807tikz_00001b)"
         id="g13">
        <path
           d="M 18.5625 9.15625 C 18.5625 14.023438 14.617188 17.972656 9.75 17.972656 C 4.882813 17.972656 0.9375 14.023438 0.9375 9.15625 C 0.9375 4.289063 4.882813 0.34375 9.75 0.34375 C 14.617188 0.34375 18.5625 4.289063 18.5625 9.15625 Z M 18.5625 9.15625"
           fill="#62aadf"
           id="path11" />
      </g>
      <g
         clip-path="url(#svg840185315807tikz_00001c)"
         id="g17">
        <path
           d="M 3885.625 3272.1375 C 3885.625 3223.465625 3846.171875 3183.973437 3797.5 3183.973437 C 3748.828125 3183.973437 3709.375 3223.465625 3709.375 3272.1375 C 3709.375 3320.809375 3748.828125 3360.2625 3797.5 3360.2625 C 3846.171875 3360.2625 3885.625 3320.809375 3885.625 3272.1375 Z M 3885.625 3272.1375"
           transform="matrix(.1 0 0 -.1 -370 336.37)"
           fill="none"
           stroke-width="4.807"
           stroke="#000"
           stroke-miterlimit="10"
           id="path15" />
      </g>
    </g>
    <clipPath
       id="svg840185315807tikz_00001aN">
      <path
         d="M 67.011719 392 L 86 392 L 86 410.632813 L 67.011719 410.632813 Z M 67.011719 392"
         id="path20" />
    </clipPath>
    <clipPath
       id="svg840185315807tikz_00001e">
      <path
         d="M 0.371094 0.5 L 18.476563 0.5 L 18.476563 18.609375 L 0.371094 18.609375 Z M 0.371094 0.5"
         id="path23" />
    </clipPath>
    <clipPath
       id="svg840185315807tikz_00001d">
      <path
         d="M0 0H19V19H0z"
         id="path26" />
    </clipPath>
    <g
       clip-path="url(#svg840185315807tikz_00001d)"
       id="g32">
      <g
         clip-path="url(#svg840185315807tikz_00001e)"
         id="svg840185315807tikz_00001aO">
        <path
           d="M 852.382813 248.153125 C 852.382813 199.48125 812.929688 160.028125 764.257813 160.028125 C 715.585938 160.028125 676.132813 199.48125 676.132813 248.153125 C 676.132813 296.825 715.585938 336.278125 764.257813 336.278125 C 812.929688 336.278125 852.382813 296.825 852.382813 248.153125 Z M 852.382813 248.153125"
           transform="matrix(.1 0 0 -.1 -67 34.37)"
           fill="#62aadf"
           stroke-width="4.807"
           stroke="#000"
           stroke-miterlimit="10"
           id="path29" />
      </g>
    </g>
    <clipPath
       id="svg840185315807tikz_00001aP">
      <path
         d="M 190.8125 148.128906 L 197.542969 148.128906 L 197.542969 155.578125 L 190.8125 155.578125 Z M 190.8125 148.128906"
         id="path34" />
    </clipPath>
    <filter
       id="svg840185315807tikz_00001h"
       filterUnits="objectBoundingBox"
       x="0"
       y="0"
       width="1"
       height="1">
      <feColorMatrix
         in="SourceGraphic"
         values="0 0 0 0 1 0 0 0 0 1 0 0 0 0 1 0 0 0 1 0"
         id="feColorMatrix37" />
    </filter>
    <clipPath
       id="svg840185315807tikz_00001g">
      <path
         d="M 0.8125 0.128906 L 7.542969 0.128906 L 7.542969 7.578125 L 0.8125 7.578125 Z M 0.8125 0.128906"
         id="path40" />
    </clipPath>
    <clipPath
       id="svg840185315807tikz_00001f">
      <path
         d="M0 0H8V8H0z"
         id="path43" />
    </clipPath>
    <g
       clip-path="url(#svg840185315807tikz_00001f)"
       id="g49">
      <g
         clip-path="url(#svg840185315807tikz_00001g)"
         id="svg840185315807tikz_00001i">
        <path
           d="M 0.8125 7.578125 L 7.542969 7.578125 L 7.542969 0.128906 L 0.8125 0.128906 Z M 0.8125 7.578125"
           fill-opacity=".502"
           id="path46" />
      </g>
    </g>
    <mask
       id="svg840185315807tikz_00001aR">
      <g
         filter="url(#svg840185315807tikz_00001h)"
         id="g53">
        <use
           xlink:href="#svg840185315807tikz_00001i"
           id="use51" />
      </g>
    </mask>
    <clipPath
       id="svg840185315807tikz_00001k">
      <path
         d="M 0.8125 0.128906 L 7.542969 0.128906 L 7.542969 7.578125 L 0.8125 7.578125 Z M 0.8125 0.128906"
         id="path56" />
    </clipPath>
    <clipPath
       id="svg840185315807tikz_00001j">
      <path
         d="M0 0H8V8H0z"
         id="path59" />
    </clipPath>
    <g
       clip-path="url(#svg840185315807tikz_00001j)"
       id="g65">
      <g
         clip-path="url(#svg840185315807tikz_00001k)"
         id="svg840185315807tikz_00001aQ">
        <path
           d="M 6.875 6.296875 C 6.257813 7.066406 5.222656 7.453125 4.238281 7.363281 C 3.253906 7.269531 2.335938 6.730469 1.703125 5.972656 C 0.191406 4.148438 0.742188 0.195313 3.667969 0.347656 C 6.261719 0.484375 8.660156 4.058594 6.875 6.296875 Z M 6.875 6.296875"
           fill="#fff"
           id="path62" />
      </g>
    </g>
    <clipPath
       id="svg840185315807tikz_00001aS">
      <path
         d="M 173.261719 150.53125 L 180.234375 150.53125 L 180.234375 157.742188 L 173.261719 157.742188 Z M 173.261719 150.53125"
         id="path67" />
    </clipPath>
    <clipPath
       id="svg840185315807tikz_00001m">
      <path
         d="M 0.261719 0.53125 L 7.234375 0.53125 L 7.234375 7.742188 L 0.261719 7.742188 Z M 0.261719 0.53125"
         id="path70" />
    </clipPath>
    <clipPath
       id="svg840185315807tikz_00001l">
      <path
         d="M0 0H8V8H0z"
         id="path73" />
    </clipPath>
    <g
       clip-path="url(#svg840185315807tikz_00001l)"
       id="g79">
      <g
         clip-path="url(#svg840185315807tikz_00001m)"
         id="svg840185315807tikz_00001n">
        <path
           d="M 0.261719 7.742188 L 7.234375 7.742188 L 7.234375 0.53125 L 0.261719 0.53125 Z M 0.261719 7.742188"
           fill-opacity=".502"
           id="path76" />
      </g>
    </g>
    <mask
       id="svg840185315807tikz_00001aU">
      <g
         filter="url(#svg840185315807tikz_00001h)"
         id="g83">
        <use
           xlink:href="#svg840185315807tikz_00001n"
           id="use81" />
      </g>
    </mask>
    <clipPath
       id="svg840185315807tikz_00001p">
      <path
         d="M 0.261719 0.53125 L 7.234375 0.53125 L 7.234375 7.742188 L 0.261719 7.742188 Z M 0.261719 0.53125"
         id="path86" />
    </clipPath>
    <clipPath
       id="svg840185315807tikz_00001o">
      <path
         d="M0 0H8V8H0z"
         id="path89" />
    </clipPath>
    <g
       clip-path="url(#svg840185315807tikz_00001o)"
       id="g95">
      <g
         clip-path="url(#svg840185315807tikz_00001p)"
         id="svg840185315807tikz_00001aT">
        <path
           d="M 6.4375 6.535156 C 5.820313 7.308594 4.785156 7.695313 3.800781 7.605469 C 2.8125 7.511719 1.898438 6.972656 1.265625 6.210938 C -0.246094 4.390625 0.304688 0.4375 3.230469 0.589844 C 5.820313 0.726563 8.222656 4.300781 6.4375 6.535156 Z M 6.4375 6.535156"
           fill="#fff"
           id="path92" />
      </g>
    </g>
    <clipPath
       id="svg840185315807tikz_00001aV">
      <path
         d="M 173.984375 169.523438 L 180.714844 169.523438 L 180.714844 176.734375 L 173.984375 176.734375 Z M 173.984375 169.523438"
         id="path97" />
    </clipPath>
    <clipPath
       id="svg840185315807tikz_00001r">
      <path
         d="M 0.984375 0.523438 L 7.714844 0.523438 L 7.714844 7.734375 L 0.984375 7.734375 Z M 0.984375 0.523438"
         id="path100" />
    </clipPath>
    <clipPath
       id="svg840185315807tikz_00001q">
      <path
         d="M0 0H8V8H0z"
         id="path103" />
    </clipPath>
    <g
       clip-path="url(#svg840185315807tikz_00001q)"
       id="g109">
      <g
         clip-path="url(#svg840185315807tikz_00001r)"
         id="svg840185315807tikz_00001s">
        <path
           d="M 0.984375 7.734375 L 7.714844 7.734375 L 7.714844 0.523438 L 0.984375 0.523438 Z M 0.984375 7.734375"
           fill-opacity=".502"
           id="path106" />
      </g>
    </g>
    <mask
       id="svg840185315807tikz_00001aX">
      <g
         filter="url(#svg840185315807tikz_00001h)"
         id="g113">
        <use
           xlink:href="#svg840185315807tikz_00001s"
           id="use111" />
      </g>
    </mask>
    <clipPath
       id="svg840185315807tikz_00001u">
      <path
         d="M 0.984375 0.523438 L 7.714844 0.523438 L 7.714844 7.734375 L 0.984375 7.734375 Z M 0.984375 0.523438"
         id="path116" />
    </clipPath>
    <clipPath
       id="svg840185315807tikz_00001t">
      <path
         d="M0 0H8V8H0z"
         id="path119" />
    </clipPath>
    <g
       clip-path="url(#svg840185315807tikz_00001t)"
       id="g125">
      <g
         clip-path="url(#svg840185315807tikz_00001u)"
         id="svg840185315807tikz_00001aW">
        <path
           d="M 6.980469 6.570313 C 6.363281 7.34375 5.324219 7.730469 4.339844 7.636719 C 3.355469 7.546875 2.441406 7.007813 1.808594 6.246094 C 0.296875 4.425781 0.847656 0.46875 3.769531 0.621094 C 6.363281 0.757813 8.765625 4.335938 6.980469 6.570313 Z M 6.980469 6.570313"
           fill="#fff"
           id="path122" />
      </g>
    </g>
    <clipPath
       id="svg840185315807tikz_00001aY">
      <path
         d="M 170.136719 160.628906 L 177.109375 160.628906 L 177.109375 167.839844 L 170.136719 167.839844 Z M 170.136719 160.628906"
         id="path127" />
    </clipPath>
    <clipPath
       id="svg840185315807tikz_00001w">
      <path
         d="M 0.136719 0.628906 L 7.109375 0.628906 L 7.109375 7.839844 L 0.136719 7.839844 Z M 0.136719 0.628906"
         id="path130" />
    </clipPath>
    <clipPath
       id="svg840185315807tikz_00001v">
      <path
         d="M0 0H8V8H0z"
         id="path133" />
    </clipPath>
    <g
       clip-path="url(#svg840185315807tikz_00001v)"
       id="g139">
      <g
         clip-path="url(#svg840185315807tikz_00001w)"
         id="svg840185315807tikz_00001x">
        <path
           d="M 0.136719 7.839844 L 7.109375 7.839844 L 7.109375 0.628906 L 0.136719 0.628906 Z M 0.136719 7.839844"
           fill-opacity=".502"
           id="path136" />
      </g>
    </g>
    <mask
       id="svg840185315807tikz_00001ba">
      <g
         filter="url(#svg840185315807tikz_00001h)"
         id="g143">
        <use
           xlink:href="#svg840185315807tikz_00001x"
           id="use141" />
      </g>
    </mask>
    <clipPath
       id="svg840185315807tikz_00001z">
      <path
         d="M 0.136719 0.628906 L 7 0.628906 L 7 7.839844 L 0.136719 7.839844 Z M 0.136719 0.628906"
         id="path146" />
    </clipPath>
    <clipPath
       id="svg840185315807tikz_00001y">
      <path
         d="M0 0H8V8H0z"
         id="path149" />
    </clipPath>
    <g
       clip-path="url(#svg840185315807tikz_00001y)"
       id="g155">
      <g
         clip-path="url(#svg840185315807tikz_00001z)"
         id="svg840185315807tikz_00001aZ">
        <path
           d="M 6.253906 6.734375 C 5.636719 7.507813 4.601563 7.894531 3.617188 7.800781 C 2.632813 7.710938 1.714844 7.171875 1.082031 6.410156 C -0.429688 4.589844 0.121094 0.636719 3.046875 0.789063 C 5.636719 0.925781 8.039063 4.5 6.253906 6.734375 Z M 6.253906 6.734375"
           fill="#fff"
           id="path152" />
      </g>
    </g>
    <clipPath
       id="svg840185315807tikz_00001bb">
      <path
         d="M 200.425781 153.65625 L 207.15625 153.65625 L 207.15625 161.109375 L 200.425781 161.109375 Z M 200.425781 153.65625"
         id="path157" />
    </clipPath>
    <clipPath
       id="svg840185315807tikz_00001B">
      <path
         d="M 0.425781 0.65625 L 7.15625 0.65625 L 7.15625 8.109375 L 0.425781 8.109375 Z M 0.425781 0.65625"
         id="path160" />
    </clipPath>
    <clipPath
       id="svg840185315807tikz_00001A">
      <path
         d="M0 0H8V9H0z"
         id="path163" />
    </clipPath>
    <g
       clip-path="url(#svg840185315807tikz_00001A)"
       id="g169">
      <g
         clip-path="url(#svg840185315807tikz_00001B)"
         id="svg840185315807tikz_00001C">
        <path
           d="M 0.425781 8.109375 L 7.15625 8.109375 L 7.15625 0.65625 L 0.425781 0.65625 Z M 0.425781 8.109375"
           fill-opacity=".502"
           id="path166" />
      </g>
    </g>
    <mask
       id="svg840185315807tikz_00001bd">
      <g
         filter="url(#svg840185315807tikz_00001h)"
         id="g173">
        <use
           xlink:href="#svg840185315807tikz_00001C"
           id="use171" />
      </g>
    </mask>
    <clipPath
       id="svg840185315807tikz_00001E">
      <path
         d="M 0.425781 0.65625 L 7.15625 0.65625 L 7.15625 8 L 0.425781 8 Z M 0.425781 0.65625"
         id="path176" />
    </clipPath>
    <clipPath
       id="svg840185315807tikz_00001D">
      <path
         d="M0 0H8V9H0z"
         id="path179" />
    </clipPath>
    <g
       clip-path="url(#svg840185315807tikz_00001D)"
       id="g185">
      <g
         clip-path="url(#svg840185315807tikz_00001E)"
         id="svg840185315807tikz_00001bc">
        <path
           d="M 6.519531 6.816406 C 5.902344 7.589844 4.863281 7.976563 3.878906 7.886719 C 2.894531 7.796875 1.976563 7.253906 1.347656 6.492188 C -0.167969 4.671875 0.382813 0.71875 3.308594 0.871094 C 5.902344 1.007813 8.304688 4.582031 6.519531 6.816406 Z M 6.519531 6.816406"
           fill="#fff"
           id="path182" />
      </g>
    </g>
    <clipPath
       id="svg840185315807tikz_00001be">
      <path
         d="M 182.15625 151.492188 L 189.128906 151.492188 L 189.128906 158.703125 L 182.15625 158.703125 Z M 182.15625 151.492188"
         id="path187" />
    </clipPath>
    <clipPath
       id="svg840185315807tikz_00001G">
      <path
         d="M 0.15625 0.492188 L 7.128906 0.492188 L 7.128906 7.703125 L 0.15625 7.703125 Z M 0.15625 0.492188"
         id="path190" />
    </clipPath>
    <clipPath
       id="svg840185315807tikz_00001F">
      <path
         d="M0 0H8V8H0z"
         id="path193" />
    </clipPath>
    <g
       clip-path="url(#svg840185315807tikz_00001F)"
       id="g199">
      <g
         clip-path="url(#svg840185315807tikz_00001G)"
         id="svg840185315807tikz_00001H">
        <path
           d="M 0.15625 7.703125 L 7.128906 7.703125 L 7.128906 0.492188 L 0.15625 0.492188 Z M 0.15625 7.703125"
           fill-opacity=".502"
           id="path196" />
      </g>
    </g>
    <mask
       id="svg840185315807tikz_00001bg">
      <g
         filter="url(#svg840185315807tikz_00001h)"
         id="g203">
        <use
           xlink:href="#svg840185315807tikz_00001H"
           id="use201" />
      </g>
    </mask>
    <clipPath
       id="svg840185315807tikz_00001J">
      <path
         d="M 0.15625 0.492188 L 7.128906 0.492188 L 7.128906 7.703125 L 0.15625 7.703125 Z M 0.15625 0.492188"
         id="path206" />
    </clipPath>
    <clipPath
       id="svg840185315807tikz_00001I">
      <path
         d="M0 0H8V8H0z"
         id="path209" />
    </clipPath>
    <g
       clip-path="url(#svg840185315807tikz_00001I)"
       id="g215">
      <g
         clip-path="url(#svg840185315807tikz_00001J)"
         id="svg840185315807tikz_00001bf">
        <path
           d="M 6.382813 6.605469 C 5.769531 7.378906 4.730469 7.765625 3.746094 7.675781 C 2.761719 7.582031 1.84375 7.042969 1.214844 6.28125 C -0.300781 4.460938 0.25 0.507813 3.175781 0.660156 C 5.769531 0.796875 8.171875 4.371094 6.382813 6.605469 Z M 6.382813 6.605469"
           fill="#fff"
           id="path212" />
      </g>
    </g>
    <clipPath
       id="svg840185315807tikz_00001bh">
      <path
         d="M 199.707031 161.589844 L 206.4375 161.589844 L 206.4375 169.042969 L 199.707031 169.042969 Z M 199.707031 161.589844"
         id="path217" />
    </clipPath>
    <clipPath
       id="svg840185315807tikz_00001L">
      <path
         d="M 0.707031 0.589844 L 7.4375 0.589844 L 7.4375 8.042969 L 0.707031 8.042969 Z M 0.707031 0.589844"
         id="path220" />
    </clipPath>
    <clipPath
       id="svg840185315807tikz_00001K">
      <path
         d="M0 0H8V9H0z"
         id="path223" />
    </clipPath>
    <g
       clip-path="url(#svg840185315807tikz_00001K)"
       id="g229">
      <g
         clip-path="url(#svg840185315807tikz_00001L)"
         id="svg840185315807tikz_00001M">
        <path
           d="M 0.707031 8.042969 L 7.4375 8.042969 L 7.4375 0.589844 L 0.707031 0.589844 Z M 0.707031 8.042969"
           fill-opacity=".502"
           id="path226" />
      </g>
    </g>
    <mask
       id="svg840185315807tikz_00001bj">
      <g
         filter="url(#svg840185315807tikz_00001h)"
         id="g233">
        <use
           xlink:href="#svg840185315807tikz_00001M"
           id="use231" />
      </g>
    </mask>
    <clipPath
       id="svg840185315807tikz_00001O">
      <path
         d="M 0.707031 0.589844 L 7.4375 0.589844 L 7.4375 8 L 0.707031 8 Z M 0.707031 0.589844"
         id="path236" />
    </clipPath>
    <clipPath
       id="svg840185315807tikz_00001N">
      <path
         d="M0 0H8V9H0z"
         id="path239" />
    </clipPath>
    <g
       clip-path="url(#svg840185315807tikz_00001N)"
       id="g245">
      <g
         clip-path="url(#svg840185315807tikz_00001O)"
         id="svg840185315807tikz_00001bi">
        <path
           d="M 6.722656 6.777344 C 6.105469 7.550781 5.070313 7.9375 4.085938 7.847656 C 3.101563 7.753906 2.183594 7.214844 1.550781 6.453125 C 0.0390625 4.632813 0.589844 0.679688 3.515625 0.832031 C 6.105469 0.964844 8.507813 4.542969 6.722656 6.777344 Z M 6.722656 6.777344"
           fill="#fff"
           id="path242" />
      </g>
    </g>
    <clipPath
       id="svg840185315807tikz_00001bk">
      <path
         d="M 190.570313 158.707031 L 197.300781 158.707031 L 197.300781 165.917969 L 190.570313 165.917969 Z M 190.570313 158.707031"
         id="path247" />
    </clipPath>
    <clipPath
       id="svg840185315807tikz_00001Q">
      <path
         d="M 0.570313 0.707031 L 7.300781 0.707031 L 7.300781 7.917969 L 0.570313 7.917969 Z M 0.570313 0.707031"
         id="path250" />
    </clipPath>
    <clipPath
       id="svg840185315807tikz_00001P">
      <path
         d="M0 0H8V8H0z"
         id="path253" />
    </clipPath>
    <g
       clip-path="url(#svg840185315807tikz_00001P)"
       id="g259">
      <g
         clip-path="url(#svg840185315807tikz_00001Q)"
         id="svg840185315807tikz_00001R">
        <path
           d="M 0.570313 7.917969 L 7.300781 7.917969 L 7.300781 0.707031 L 0.570313 0.707031 Z M 0.570313 7.917969"
           fill-opacity=".502"
           id="path256" />
      </g>
    </g>
    <mask
       id="svg840185315807tikz_00001bm">
      <g
         filter="url(#svg840185315807tikz_00001h)"
         id="g263">
        <use
           xlink:href="#svg840185315807tikz_00001R"
           id="use261" />
      </g>
    </mask>
    <clipPath
       id="svg840185315807tikz_00001T">
      <path
         d="M 0.570313 0.707031 L 7.300781 0.707031 L 7.300781 7.917969 L 0.570313 7.917969 Z M 0.570313 0.707031"
         id="path266" />
    </clipPath>
    <clipPath
       id="svg840185315807tikz_00001S">
      <path
         d="M0 0H8V8H0z"
         id="path269" />
    </clipPath>
    <g
       clip-path="url(#svg840185315807tikz_00001S)"
       id="g275">
      <g
         clip-path="url(#svg840185315807tikz_00001T)"
         id="svg840185315807tikz_00001bl">
        <path
           d="M 6.636719 6.8125 C 6.019531 7.585938 4.980469 7.972656 3.996094 7.882813 C 3.015625 7.789063 2.097656 7.25 1.464844 6.488281 C -0.046875 4.667969 0.503906 0.714844 3.429688 0.867188 C 6.019531 1 8.421875 4.578125 6.636719 6.8125 Z M 6.636719 6.8125"
           fill="#fff"
           id="path272" />
      </g>
    </g>
    <clipPath
       id="svg840185315807tikz_00001bn">
      <path
         d="M 183.359375 169.042969 L 190.089844 169.042969 L 190.089844 176.253906 L 183.359375 176.253906 Z M 183.359375 169.042969"
         id="path277" />
    </clipPath>
    <clipPath
       id="svg840185315807tikz_00001V">
      <path
         d="M 0.359375 0.0429688 L 7.089844 0.0429688 L 7.089844 7.253906 L 0.359375 7.253906 Z M 0.359375 0.0429688"
         id="path280" />
    </clipPath>
    <clipPath
       id="svg840185315807tikz_00001U">
      <path
         d="M0 0H8V8H0z"
         id="path283" />
    </clipPath>
    <g
       clip-path="url(#svg840185315807tikz_00001U)"
       id="g289">
      <g
         clip-path="url(#svg840185315807tikz_00001V)"
         id="svg840185315807tikz_00001W">
        <path
           d="M 0.359375 7.253906 L 7.089844 7.253906 L 7.089844 0.0429688 L 0.359375 0.0429688 Z M 0.359375 7.253906"
           fill-opacity=".502"
           id="path286" />
      </g>
    </g>
    <mask
       id="svg840185315807tikz_00001bp">
      <g
         filter="url(#svg840185315807tikz_00001h)"
         id="g293">
        <use
           xlink:href="#svg840185315807tikz_00001W"
           id="use291" />
      </g>
    </mask>
    <clipPath
       id="svg840185315807tikz_00001Y">
      <path
         d="M 0.359375 0.0429688 L 7.089844 0.0429688 L 7.089844 7.253906 L 0.359375 7.253906 Z M 0.359375 0.0429688"
         id="path296" />
    </clipPath>
    <clipPath
       id="svg840185315807tikz_00001X">
      <path
         d="M0 0H8V8H0z"
         id="path299" />
    </clipPath>
    <g
       clip-path="url(#svg840185315807tikz_00001X)"
       id="g305">
      <g
         clip-path="url(#svg840185315807tikz_00001Y)"
         id="svg840185315807tikz_00001bo">
        <path
           d="M 6.429688 6.027344 C 5.8125 6.800781 4.773438 7.1875 3.789063 7.09375 C 2.804688 7.003906 1.886719 6.464844 1.257813 5.703125 C -0.257813 3.882813 0.292969 -0.0703125 3.21875 0.0820313 C 5.8125 0.214844 8.214844 3.792969 6.429688 6.027344 Z M 6.429688 6.027344"
           fill="#fff"
           id="path302" />
      </g>
    </g>
    <clipPath
       id="svg840185315807tikz_00001bq">
      <path
         d="M 177.589844 161.828125 L 184.320313 161.828125 L 184.320313 169.28125 L 177.589844 169.28125 Z M 177.589844 161.828125"
         id="path307" />
    </clipPath>
    <clipPath
       id="svg840185315807tikz_00001aa">
      <path
         d="M 0.589844 0.828125 L 7.320313 0.828125 L 7.320313 8.28125 L 0.589844 8.28125 Z M 0.589844 0.828125"
         id="path310" />
    </clipPath>
    <clipPath
       id="svg840185315807tikz_00001Z">
      <path
         d="M0 0H8V9H0z"
         id="path313" />
    </clipPath>
    <g
       clip-path="url(#svg840185315807tikz_00001Z)"
       id="g319">
      <g
         clip-path="url(#svg840185315807tikz_00001aa)"
         id="svg840185315807tikz_00001ab">
        <path
           d="M 0.589844 8.28125 L 7.320313 8.28125 L 7.320313 0.828125 L 0.589844 0.828125 Z M 0.589844 8.28125"
           fill-opacity=".502"
           id="path316" />
      </g>
    </g>
    <mask
       id="svg840185315807tikz_00001bs">
      <g
         filter="url(#svg840185315807tikz_00001h)"
         id="g323">
        <use
           xlink:href="#svg840185315807tikz_00001ab"
           id="use321" />
      </g>
    </mask>
    <clipPath
       id="svg840185315807tikz_00001ad">
      <path
         d="M 0.589844 1 L 7.320313 1 L 7.320313 8.28125 L 0.589844 8.28125 Z M 0.589844 1"
         id="path326" />
    </clipPath>
    <clipPath
       id="svg840185315807tikz_00001ac">
      <path
         d="M0 0H8V9H0z"
         id="path329" />
    </clipPath>
    <g
       clip-path="url(#svg840185315807tikz_00001ac)"
       id="g335">
      <g
         clip-path="url(#svg840185315807tikz_00001ad)"
         id="svg840185315807tikz_00001br">
        <path
           d="M 6.671875 6.96875 C 6.054688 7.742188 5.019531 8.128906 4.03125 8.035156 C 3.050781 7.945313 2.132813 7.40625 1.5 6.644531 C -0.0117188 4.824219 0.539063 0.871094 3.464844 1.023438 C 6.054688 1.15625 8.457031 4.734375 6.671875 6.96875 Z M 6.671875 6.96875"
           fill="#fff"
           id="path332" />
      </g>
    </g>
    <clipPath
       id="svg840185315807tikz_00001bt">
      <path
         d="M 192.734375 169.042969 L 199.464844 169.042969 L 199.464844 176.253906 L 192.734375 176.253906 Z M 192.734375 169.042969"
         id="path337" />
    </clipPath>
    <clipPath
       id="svg840185315807tikz_00001af">
      <path
         d="M 0.734375 0.0429688 L 7.464844 0.0429688 L 7.464844 7.253906 L 0.734375 7.253906 Z M 0.734375 0.0429688"
         id="path340" />
    </clipPath>
    <clipPath
       id="svg840185315807tikz_00001ae">
      <path
         d="M0 0H8V8H0z"
         id="path343" />
    </clipPath>
    <g
       clip-path="url(#svg840185315807tikz_00001ae)"
       id="g349">
      <g
         clip-path="url(#svg840185315807tikz_00001af)"
         id="svg840185315807tikz_00001ag">
        <path
           d="M 0.734375 7.253906 L 7.464844 7.253906 L 7.464844 0.0429688 L 0.734375 0.0429688 Z M 0.734375 7.253906"
           fill-opacity=".502"
           id="path346" />
      </g>
    </g>
    <mask
       id="svg840185315807tikz_00001bv">
      <g
         filter="url(#svg840185315807tikz_00001h)"
         id="g353">
        <use
           xlink:href="#svg840185315807tikz_00001ag"
           id="use351" />
      </g>
    </mask>
    <clipPath
       id="svg840185315807tikz_00001ai">
      <path
         d="M 0.734375 0.0429688 L 7.464844 0.0429688 L 7.464844 7.253906 L 0.734375 7.253906 Z M 0.734375 0.0429688"
         id="path356" />
    </clipPath>
    <clipPath
       id="svg840185315807tikz_00001ah">
      <path
         d="M0 0H8V8H0z"
         id="path359" />
    </clipPath>
    <g
       clip-path="url(#svg840185315807tikz_00001ah)"
       id="g365">
      <g
         clip-path="url(#svg840185315807tikz_00001ai)"
         id="svg840185315807tikz_00001bu">
        <path
           d="M 6.785156 6.089844 C 6.167969 6.859375 5.132813 7.246094 4.148438 7.15625 C 3.164063 7.066406 2.246094 6.523438 1.613281 5.765625 C 0.101563 3.941406 0.652344 -0.0117188 3.578125 0.144531 C 6.171875 0.277344 8.570313 3.851563 6.785156 6.089844 Z M 6.785156 6.089844"
           fill="#fff"
           id="path362" />
      </g>
    </g>
    <clipPath
       id="svg840185315807tikz_00001bw">
      <path
         d="M 67.011719 334 L 87 334 L 87 353 L 67.011719 353 Z M 67.011719 334"
         id="path367" />
    </clipPath>
    <clipPath
       id="svg840185315807tikz_00001bx">
      <path
         d="M 67.011719 327 L 94 327 L 94 360 L 67.011719 360 Z M 67.011719 327"
         id="path370" />
    </clipPath>
    <clipPath
       id="svg840185315807tikz_00001by">
      <path
         d="M 77.589844 336.835938 L 83.839844 336.835938 L 83.839844 343.324219 L 77.589844 343.324219 Z M 77.589844 336.835938"
         id="path373" />
    </clipPath>
    <clipPath
       id="svg840185315807tikz_00001ak">
      <path
         d="M 0.589844 0.835938 L 6.839844 0.835938 L 6.839844 7.324219 L 0.589844 7.324219 Z M 0.589844 0.835938"
         id="path376" />
    </clipPath>
    <clipPath
       id="svg840185315807tikz_00001aj">
      <path
         d="M0 0H7V8H0z"
         id="path379" />
    </clipPath>
    <g
       clip-path="url(#svg840185315807tikz_00001aj)"
       id="g385">
      <g
         clip-path="url(#svg840185315807tikz_00001ak)"
         id="svg840185315807tikz_00001al">
        <path
           d="M 0.589844 7.324219 L 6.839844 7.324219 L 6.839844 0.835938 L 0.589844 0.835938 Z M 0.589844 7.324219"
           fill-opacity=".502"
           id="path382" />
      </g>
    </g>
    <mask
       id="svg840185315807tikz_00001bA">
      <g
         filter="url(#svg840185315807tikz_00001h)"
         id="g389">
        <use
           xlink:href="#svg840185315807tikz_00001al"
           id="use387" />
      </g>
    </mask>
    <clipPath
       id="svg840185315807tikz_00001an">
      <path
         d="M 0.589844 0.835938 L 6.839844 0.835938 L 6.839844 7.324219 L 0.589844 7.324219 Z M 0.589844 0.835938"
         id="path392" />
    </clipPath>
    <clipPath
       id="svg840185315807tikz_00001am">
      <path
         d="M0 0H7V8H0z"
         id="path395" />
    </clipPath>
    <g
       clip-path="url(#svg840185315807tikz_00001am)"
       id="g401">
      <g
         clip-path="url(#svg840185315807tikz_00001an)"
         id="svg840185315807tikz_00001bz">
        <path
           d="M 6.121094 6.28125 C 5.5625 6.980469 4.625 7.332031 3.734375 7.246094 C 2.84375 7.164063 2.015625 6.675781 1.445313 5.988281 C 0.078125 4.339844 0.574219 0.765625 3.21875 0.902344 C 5.5625 1.027344 7.738281 4.261719 6.121094 6.28125 Z M 6.121094 6.28125"
           fill="#fff"
           id="path398" />
      </g>
    </g>
    <clipPath
       id="svg840185315807tikz_00001bB">
      <path
         d="M 67.011719 76 L 318 76 L 318 254 L 67.011719 254 Z M 67.011719 76"
         id="path403" />
    </clipPath>
    <clipPath
       id="svg840185315807tikz_00001bC">
      <path
         d="M 67.011719 82 L 321 82 L 321 248 L 67.011719 248 Z M 67.011719 82"
         id="path406" />
    </clipPath>
    <clipPath
       id="svg840185315807tikz_00001bD">
      <path
         d="M 110 42.355469 L 261 42.355469 L 261 305 L 110 305 Z M 110 42.355469"
         id="path409" />
    </clipPath>
    <clipPath
       id="svg840185315807tikz_00001ap">
      <path
         d="M 0.128906 0.601563 L 18 0.601563 L 18 18.707031 L 0.128906 18.707031 Z M 0.128906 0.601563"
         id="path412" />
    </clipPath>
    <clipPath
       id="svg840185315807tikz_00001aq">
      <path
         d="M 0.128906 0.601563 L 18.234375 0.601563 L 18.234375 18.707031 L 0.128906 18.707031 Z M 0.128906 0.601563"
         id="path415" />
    </clipPath>
    <clipPath
       id="svg840185315807tikz_00001ao">
      <path
         d="M0 0H19V19H0z"
         id="path418" />
    </clipPath>
    <g
       id="svg840185315807tikz_00001bE"
       clip-path="url(#svg840185315807tikz_00001ao)">
      <g
         clip-path="url(#svg840185315807tikz_00001ap)"
         id="g423">
        <path
           d="M 17.996094 9.652344 C 17.996094 14.519531 14.050781 18.464844 9.183594 18.464844 C 4.316406 18.464844 0.367188 14.519531 0.367188 9.652344 C 0.367188 4.785156 4.316406 0.839844 9.183594 0.839844 C 14.050781 0.839844 17.996094 4.785156 17.996094 9.652344 Z M 17.996094 9.652344"
           fill="#62aadf"
           id="path421" />
      </g>
      <g
         clip-path="url(#svg840185315807tikz_00001aq)"
         id="g427">
        <path
           d="M 2959.960938 2537.176562 C 2959.960938 2488.504687 2920.507813 2449.051562 2871.835938 2449.051562 C 2823.164063 2449.051562 2783.671875 2488.504687 2783.671875 2537.176562 C 2783.671875 2585.848437 2823.164063 2625.301562 2871.835938 2625.301562 C 2920.507813 2625.301562 2959.960938 2585.848437 2959.960938 2537.176562 Z M 2959.960938 2537.176562"
           transform="matrix(.1 0 0 -.1 -278 263.37)"
           fill="none"
           stroke-width="4.807"
           stroke="#000"
           stroke-miterlimit="10"
           id="path425" />
      </g>
    </g>
    <clipPath
       id="svg840185315807tikz_00001as">
      <path
         d="M 0.503906 0.628906 L 18.609375 0.628906 L 18.609375 18.734375 L 0.503906 18.734375 Z M 0.503906 0.628906"
         id="path430" />
    </clipPath>
    <clipPath
       id="svg840185315807tikz_00001ar">
      <path
         d="M0 0H19V19H0z"
         id="path433" />
    </clipPath>
    <g
       clip-path="url(#svg840185315807tikz_00001ar)"
       id="g439">
      <g
         clip-path="url(#svg840185315807tikz_00001as)"
         id="svg840185315807tikz_00001bF">
        <path
           d="M 2503.671875 1756.864062 C 2503.671875 1708.192187 2464.21875 1668.778125 2415.546875 1668.778125 C 2366.875 1668.778125 2327.421875 1708.192187 2327.421875 1756.864062 C 2327.421875 1805.535937 2366.875 1845.028125 2415.546875 1845.028125 C 2464.21875 1845.028125 2503.671875 1805.535937 2503.671875 1756.864062 Z M 2503.671875 1756.864062"
           transform="matrix(.1 0 0 -.1 -232 185.37)"
           fill="#62aadf"
           stroke-width="4.807"
           stroke="#000"
           stroke-miterlimit="10"
           id="path436" />
      </g>
    </g>
    <clipPath
       id="svg840185315807tikz_00001au">
      <path
         d="M 0.0742188 0.00390625 L 18 0.00390625 L 18 18 L 0.0742188 18 Z M 0.0742188 0.00390625"
         id="path441" />
    </clipPath>
    <clipPath
       id="svg840185315807tikz_00001av">
      <path
         d="M 0.0742188 0.00390625 L 18.179688 0.00390625 L 18.179688 18.109375 L 0.0742188 18.109375 Z M 0.0742188 0.00390625"
         id="path444" />
    </clipPath>
    <clipPath
       id="svg840185315807tikz_00001at">
      <path
         d="M0 0H19V19H0z"
         id="path447" />
    </clipPath>
    <g
       id="svg840185315807tikz_00001bG"
       clip-path="url(#svg840185315807tikz_00001at)">
      <g
         clip-path="url(#svg840185315807tikz_00001au)"
         id="g452">
        <path
           d="M 17.9375 9.054688 C 17.9375 13.921875 13.992188 17.867188 9.125 17.867188 C 4.257813 17.867188 0.3125 13.921875 0.3125 9.054688 C 0.3125 4.1875 4.257813 0.242188 9.125 0.242188 C 13.992188 0.242188 17.9375 4.1875 17.9375 9.054688 Z M 17.9375 9.054688"
           fill="#62aadf"
           id="path450" />
      </g>
      <g
         clip-path="url(#svg840185315807tikz_00001av)"
         id="g456">
        <path
           d="M 1409.375 1913.153125 C 1409.375 1864.48125 1369.921875 1825.028125 1321.25 1825.028125 C 1272.578125 1825.028125 1233.125 1864.48125 1233.125 1913.153125 C 1233.125 1961.825 1272.578125 2001.278125 1321.25 2001.278125 C 1369.921875 2001.278125 1409.375 1961.825 1409.375 1913.153125 Z M 1409.375 1913.153125"
           transform="matrix(.1 0 0 -.1 -123 200.37)"
           fill="none"
           stroke-width="4.807"
           stroke="#000"
           stroke-miterlimit="10"
           id="path454" />
      </g>
    </g>
    <clipPath
       id="svg840185315807tikz_00001bH">
      <path
         d="M 67.011719 138 L 87 138 L 87 159 L 67.011719 159 Z M 67.011719 138"
         id="path459" />
    </clipPath>
    <clipPath
       id="svg840185315807tikz_00001ax">
      <path
         d="M 0.0117188 1 L 19 1 L 19 20 L 0.0117188 20 Z M 0.0117188 1"
         id="path462" />
    </clipPath>
    <clipPath
       id="svg840185315807tikz_00001ay">
      <path
         d="M 0.0117188 0.613281 L 19.316406 0.613281 L 19.316406 20.386719 L 0.0117188 20.386719 Z M 0.0117188 0.613281"
         id="path465" />
    </clipPath>
    <clipPath
       id="svg840185315807tikz_00001aw">
      <path
         d="M0 0H20V21H0z"
         id="path468" />
    </clipPath>
    <g
       id="svg840185315807tikz_00001bI"
       clip-path="url(#svg840185315807tikz_00001aw)">
      <g
         clip-path="url(#svg840185315807tikz_00001ax)"
         id="g473">
        <path
           d="M 9.832031 1.695313 C 4.96875 1.476563 0.847656 5.238281 0.628906 10.101563 C 0.40625 14.964844 4.171875 19.085938 9.03125 19.304688 C 13.894531 19.523438 18.015625 15.761719 18.238281 10.898438 C 18.457031 6.035156 14.695313 1.914063 9.832031 1.695313 Z M 9.832031 1.695313"
           fill="#62aadf"
           id="path471" />
      </g>
      <g
         clip-path="url(#svg840185315807tikz_00001ay)"
         id="g477">
        <path
           d="M 768.320313 2866.746875 C 719.6875 2868.934375 678.476563 2831.317187 676.289063 2782.684375 C 674.0625 2734.051562 711.71875 2692.840625 760.3125 2690.653125 C 808.945313 2688.465625 850.15625 2726.082812 852.382813 2774.715625 C 854.570313 2823.348437 816.953125 2864.559375 768.320313 2866.746875 Z M 768.320313 2866.746875"
           transform="matrix(.1 0 0 -.1 -67 288.37)"
           fill="none"
           stroke-width="4.808"
           stroke="#000"
           stroke-miterlimit="10"
           id="path475" />
      </g>
    </g>
    <clipPath
       id="svg840185315807tikz_00001aA">
      <path
         d="M 0.277344 0.273438 L 18.382813 0.273438 L 18.382813 18.378906 L 0.277344 18.378906 Z M 0.277344 0.273438"
         id="path480" />
    </clipPath>
    <clipPath
       id="svg840185315807tikz_00001az">
      <path
         d="M0 0H19V19H0z"
         id="path483" />
    </clipPath>
    <g
       clip-path="url(#svg840185315807tikz_00001az)"
       id="g489">
      <g
         clip-path="url(#svg840185315807tikz_00001aA)"
         id="svg840185315807tikz_00001bJ">
        <path
           d="M 1431.445313 3630.457812 C 1431.445313 3581.785937 1391.992188 3542.332812 1343.28125 3542.332812 C 1294.648438 3542.332812 1255.195313 3581.785937 1255.195313 3630.457812 C 1255.195313 3679.129687 1294.648438 3718.582812 1343.28125 3718.582812 C 1391.992188 3718.582812 1431.445313 3679.129687 1431.445313 3630.457812 Z M 1431.445313 3630.457812"
           transform="matrix(.1 0 0 -.1 -125 372.37)"
           fill="#62aadf"
           stroke-width="4.807"
           stroke="#000"
           stroke-miterlimit="10"
           id="path486" />
      </g>
    </g>
    <clipPath
       id="svg840185315807tikz_00001aC">
      <path
         d="M 0.00390625 0.355469 L 18 0.355469 L 18 18.460938 L 0.00390625 18.460938 Z M 0.00390625 0.355469"
         id="path491" />
    </clipPath>
    <clipPath
       id="svg840185315807tikz_00001aD">
      <path
         d="M 0.00390625 0.355469 L 18.109375 0.355469 L 18.109375 18.460938 L 0.00390625 18.460938 Z M 0.00390625 0.355469"
         id="path494" />
    </clipPath>
    <clipPath
       id="svg840185315807tikz_00001aB">
      <path
         d="M0 0H19V19H0z"
         id="path497" />
    </clipPath>
    <g
       id="svg840185315807tikz_00001bK"
       clip-path="url(#svg840185315807tikz_00001aB)">
      <g
         clip-path="url(#svg840185315807tikz_00001aC)"
         id="g502">
        <path
           d="M 17.867188 9.410156 C 17.867188 14.277344 13.921875 18.222656 9.054688 18.222656 C 4.1875 18.222656 0.242188 14.277344 0.242188 9.410156 C 0.242188 4.542969 4.1875 0.597656 9.054688 0.597656 C 13.921875 0.597656 17.867188 4.542969 17.867188 9.410156 Z M 17.867188 9.410156"
           fill="#62aadf"
           id="path500" />
      </g>
      <g
         clip-path="url(#svg840185315807tikz_00001aD)"
         id="g506">
        <path
           d="M 2738.671875 3309.598437 C 2738.671875 3260.926562 2699.21875 3221.473437 2650.546875 3221.473437 C 2601.875 3221.473437 2562.421875 3260.926562 2562.421875 3309.598437 C 2562.421875 3358.270312 2601.875 3397.723437 2650.546875 3397.723437 C 2699.21875 3397.723437 2738.671875 3358.270312 2738.671875 3309.598437 Z M 2738.671875 3309.598437"
           transform="matrix(.1 0 0 -.1 -256 340.37)"
           fill="none"
           stroke-width="4.807"
           stroke="#000"
           stroke-miterlimit="10"
           id="path504" />
      </g>
    </g>
    <clipPath
       id="svg840185315807tikz_00001bL">
      <path
         d="M 67.011719 363 L 87 363 L 87 382 L 67.011719 382 Z M 67.011719 363"
         id="path509" />
    </clipPath>
    <clipPath
       id="svg840185315807tikz_00001bM">
      <path
         d="M 67.011719 356 L 94 356 L 94 389 L 67.011719 389 Z M 67.011719 356"
         id="path512" />
    </clipPath>
    <clipPath
       id="svg840185315807tikz_00001bN">
      <path
         d="M 76.386719 366.882813 L 82.636719 366.882813 L 82.636719 373.613281 L 76.386719 373.613281 Z M 76.386719 366.882813"
         id="path515" />
    </clipPath>
    <clipPath
       id="svg840185315807tikz_00001aF">
      <path
         d="M 0.386719 0.882813 L 6.636719 0.882813 L 6.636719 7.613281 L 0.386719 7.613281 Z M 0.386719 0.882813"
         id="path518" />
    </clipPath>
    <clipPath
       id="svg840185315807tikz_00001aE">
      <path
         d="M0 0H7V8H0z"
         id="path521" />
    </clipPath>
    <g
       clip-path="url(#svg840185315807tikz_00001aE)"
       id="g527">
      <g
         clip-path="url(#svg840185315807tikz_00001aF)"
         id="svg840185315807tikz_00001aG">
        <path
           d="M 0.386719 7.613281 L 6.636719 7.613281 L 6.636719 0.882813 L 0.386719 0.882813 Z M 0.386719 7.613281"
           fill-opacity=".502"
           id="path524" />
      </g>
    </g>
    <mask
       id="svg840185315807tikz_00001bP">
      <g
         filter="url(#svg840185315807tikz_00001h)"
         id="g531">
        <use
           xlink:href="#svg840185315807tikz_00001aG"
           id="use529" />
      </g>
    </mask>
    <clipPath
       id="svg840185315807tikz_00001aI">
      <path
         d="M 0.386719 1 L 6.636719 1 L 6.636719 7.613281 L 0.386719 7.613281 Z M 0.386719 1"
         id="path534" />
    </clipPath>
    <clipPath
       id="svg840185315807tikz_00001aH">
      <path
         d="M0 0H7V8H0z"
         id="path537" />
    </clipPath>
    <g
       clip-path="url(#svg840185315807tikz_00001aH)"
       id="g543">
      <g
         clip-path="url(#svg840185315807tikz_00001aI)"
         id="svg840185315807tikz_00001bO">
        <path
           d="M 5.890625 6.460938 C 5.332031 7.160156 4.394531 7.507813 3.503906 7.425781 C 2.613281 7.34375 1.785156 6.855469 1.210938 6.167969 C -0.15625 4.519531 0.34375 0.945313 2.988281 1.082031 C 5.332031 1.207031 7.503906 4.4375 5.890625 6.460938 Z M 5.890625 6.460938"
           fill="#fff"
           id="path540" />
      </g>
    </g>
    <clipPath
       id="svg840185315807tikz_00001aK">
      <path
         d="M 1 1 L 8 1 L 8 6.707031 L 1 6.707031 Z M 1 1"
         id="path545" />
    </clipPath>
    <clipPath
       id="svg840185315807tikz_00001aJ">
      <path
         d="M0 0H9V7H0z"
         id="path548" />
    </clipPath>
    <g
       id="svg840185315807tikz_00001bQ"
       clip-path="url(#svg840185315807tikz_00001aJ)">
      <path
         d="M 7.234375 3.710938 L 1.765625 1.648438 L 3.570313 3.710938 L 1.765625 5.773438"
         id="path551" />
      <g
         clip-path="url(#svg840185315807tikz_00001aK)"
         id="g555">
        <path
           d="M 612.34375 2566.590625 L 557.65625 2587.215625 L 575.703125 2566.590625 L 557.65625 2545.965625 Z M 612.34375 2566.590625"
           transform="matrix(.1 0 0 -.1 -54 260.37)"
           fill="none"
           stroke-width="7.97"
           stroke-linecap="round"
           stroke-linejoin="round"
           stroke="#000"
           stroke-miterlimit="10"
           id="path553" />
      </g>
    </g>
    <clipPath
       id="svg840185315807tikz_00001aL">
      <path
         d="M0 0H14V13H0z"
         id="path558" />
    </clipPath>
    <g
       id="svg840185315807tikz_00001bR"
       clip-path="url(#svg840185315807tikz_00001aL)">
      <path
         d="M 10.226563 8.820313 L 5.789063 5.003906 L 6.78125 7.566406 L 4.375 8.886719"
         id="path561" />
      <path
         d="M 3702.265625 3365.496875 L 3657.890625 3403.660937 L 3667.8125 3378.035937 L 3643.75 3364.832812 Z M 3702.265625 3365.496875"
         transform="matrix(.1 0 0 -.1 -360 345.37)"
         fill="none"
         stroke-width="7.98"
         stroke-linecap="round"
         stroke-linejoin="round"
         stroke="#000"
         stroke-miterlimit="10"
         id="path563" />
    </g>
  </defs>
  <g
     id="g11054"
     transform="matrix(1.3060766,0,0,1.6904159,-79.792418,-64.873296)">
    <use
       xlink:href="#svg840185315807tikz_00001aM"
       transform="translate(370,90)"
       id="use568"
       x="0"
       y="0"
       width="100%"
       height="100%" />
    <path
       d="m 190.10547,145.1875 c 5.73047,0 10.375,4.64844 10.375,10.375 0,5.73047 -4.64453,10.37891 -10.375,10.37891 -5.73047,0 -10.375,-4.64844 -10.375,-10.37891 0,-5.72656 4.64453,-10.375 10.375,-10.375 z m 9.91015,9.5625 c 0,-5.02344 -4.07421,-9.09766 -9.09765,-9.09766 -5.02735,0 -9.09766,4.07422 -9.09766,9.09766 0,5.02734 4.07031,9.09766 9.09766,9.09766 5.02344,0 9.09765,-4.07032 9.09765,-9.09766 z m 0,0"
       fill="#569956"
       id="path574" />
    <path
       d="m 200.01562,154.75 c 0,5.02734 -4.07421,9.09766 -9.09765,9.09766 -5.02344,0 -9.09766,-4.07032 -9.09766,-9.09766 0,-5.02344 4.07422,-9.09766 9.09766,-9.09766 5.02344,0 9.09765,4.07422 9.09765,9.09766 z m 0,0"
       fill="#69ba6c"
       id="path576" />
    <path
       d="m 2004.8047,2708.075 c 0,-57.3047 -46.4453,-103.7891 -103.75,-103.7891 -57.3047,0 -103.75,46.4844 -103.75,103.7891 0,57.2656 46.4453,103.75 103.75,103.75 57.3047,0 103.75,-46.4844 103.75,-103.75 z m 0,0"
       transform="matrix(0.1,0,0,-0.1,0,426.37)"
       fill="none"
       stroke-width="4.807"
       stroke="#000000"
       stroke-miterlimit="10"
       id="path578" />
    <g
       clip-path="url(#svg840185315807tikz_00001aP)"
       id="g582">
      <use
         xlink:href="#svg840185315807tikz_00001aQ"
         transform="translate(190,148)"
         mask="url(#svg840185315807tikz_00001aR)"
         id="use580"
         x="0"
         y="0"
         width="100%"
         height="100%" />
    </g>
    <path
       d="m 172.66406,147.42969 c 5.73047,0 10.375,4.64453 10.375,10.375 0,5.73047 -4.64453,10.375 -10.375,10.375 -5.72656,0 -10.375,-4.64453 -10.375,-10.375 0,-5.73047 4.64844,-10.375 10.375,-10.375 z m 9.91406,9.5625 c 0,-5.02344 -4.07421,-9.09766 -9.09765,-9.09766 -5.02735,0 -9.09766,4.07422 -9.09766,9.09766 0,5.02343 4.07031,9.09765 9.09766,9.09765 5.02344,0 9.09765,-4.07422 9.09765,-9.09765 z m 0,0"
       fill="#569956"
       id="path584" />
    <path
       d="m 182.57812,156.99219 c 0,5.02343 -4.07421,9.09765 -9.09765,9.09765 -5.02735,0 -9.09766,-4.07422 -9.09766,-9.09765 0,-5.02344 4.07031,-9.09766 9.09766,-9.09766 5.02344,0 9.09765,4.07422 9.09765,9.09766 z m 0,0"
       fill="#69ba6c"
       id="path586" />
    <path
       d="m 1830.3906,2685.6531 c 0,-57.3047 -46.4453,-103.75 -103.75,-103.75 -57.2656,0 -103.75,46.4453 -103.75,103.75 0,57.3047 46.4844,103.75 103.75,103.75 57.3047,0 103.75,-46.4453 103.75,-103.75 z m 0,0"
       transform="matrix(0.1,0,0,-0.1,0,426.37)"
       fill="none"
       stroke-width="4.807"
       stroke="#000000"
       stroke-miterlimit="10"
       id="path588" />
    <g
       clip-path="url(#svg840185315807tikz_00001aS)"
       id="g592">
      <use
         xlink:href="#svg840185315807tikz_00001aT"
         transform="translate(173,150)"
         mask="url(#svg840185315807tikz_00001aU)"
         id="use590"
         x="0"
         y="0"
         width="100%"
         height="100%" />
    </g>
    <path
       d="m 173.20703,166.46484 c 5.73047,0 10.375,4.64453 10.375,10.375 0,5.72657 -4.64453,10.375 -10.375,10.375 -5.73047,0 -10.375,-4.64843 -10.375,-10.375 0,-5.73047 4.64453,-10.375 10.375,-10.375 z m 9.91016,9.5586 c 0,-5.02344 -4.07032,-9.09766 -9.09766,-9.09766 -5.02344,0 -9.09766,4.07422 -9.09766,9.09766 0,5.02734 4.07422,9.09765 9.09766,9.09765 5.02734,0 9.09766,-4.07031 9.09766,-9.09765 z m 0,0"
       fill="#cb4dce"
       id="path594" />
    <path
       d="m 183.11719,176.02344 c 0,5.02734 -4.07032,9.09765 -9.09766,9.09765 -5.02344,0 -9.09766,-4.07031 -9.09766,-9.09765 0,-5.02344 4.07422,-9.09766 9.09766,-9.09766 5.02734,0 9.09766,4.07422 9.09766,9.09766 z m 0,0"
       fill="#fa51f9"
       id="path596" />
    <path
       d="m 1835.8203,2495.3016 c 0,-57.3047 -46.4453,-103.75 -103.75,-103.75 -57.3047,0 -103.75,46.4453 -103.75,103.75 0,57.3046 46.4453,103.75 103.75,103.75 57.3047,0 103.75,-46.4454 103.75,-103.75 z m 0,0"
       transform="matrix(0.1,0,0,-0.1,0,426.37)"
       fill="none"
       stroke-width="4.807"
       stroke="#000000"
       stroke-miterlimit="10"
       id="path598" />
    <g
       clip-path="url(#svg840185315807tikz_00001aV)"
       id="g602">
      <use
         xlink:href="#svg840185315807tikz_00001aW"
         transform="translate(173,169)"
         mask="url(#svg840185315807tikz_00001aX)"
         id="use600"
         x="0"
         y="0"
         width="100%"
         height="100%" />
    </g>
    <path
       d="m 169.48047,157.62891 c 5.73047,0 10.375,4.64453 10.375,10.375 0,5.73046 -4.64453,10.375 -10.375,10.375 -5.72656,0 -10.375,-4.64454 -10.375,-10.375 0,-5.73047 4.64844,-10.375 10.375,-10.375 z m 9.91015,9.5625 c 0,-5.02735 -4.07031,-9.09766 -9.09375,-9.09766 -5.02734,0 -9.10156,4.07031 -9.10156,9.09766 0,5.02343 4.07422,9.09765 9.10156,9.09765 5.02344,0 9.09375,-4.07422 9.09375,-9.09765 z m 0,0"
       fill="#569956"
       id="path604" />
    <path
       d="m 179.39062,167.19141 c 0,5.02343 -4.07031,9.09765 -9.09375,9.09765 -5.02734,0 -9.10156,-4.07422 -9.10156,-9.09765 0,-5.02735 4.07422,-9.09766 9.10156,-9.09766 5.02344,0 9.09375,4.07031 9.09375,9.09766 z m 0,0"
       fill="#69ba6c"
       id="path606" />
    <path
       d="m 1798.5547,2583.6609 c 0,-57.3047 -46.4453,-103.75 -103.75,-103.75 -57.2656,0 -103.75,46.4453 -103.75,103.75 0,57.3047 46.4844,103.75 103.75,103.75 57.3047,0 103.75,-46.4453 103.75,-103.75 z m 0,0"
       transform="matrix(0.1,0,0,-0.1,0,426.37)"
       fill="none"
       stroke-width="4.807"
       stroke="#000000"
       stroke-miterlimit="10"
       id="path608" />
    <g
       clip-path="url(#svg840185315807tikz_00001aY)"
       id="g612">
      <use
         xlink:href="#svg840185315807tikz_00001aZ"
         transform="translate(170,160)"
         mask="url(#svg840185315807tikz_00001ba)"
         id="use610"
         x="0"
         y="0"
         width="100%"
         height="100%" />
    </g>
    <path
       d="m 199.74609,150.71094 c 5.73047,0 10.375,4.64453 10.375,10.3789 0,5.72657 -4.64453,10.375 -10.375,10.375 -5.73047,0 -10.375,-4.64843 -10.375,-10.375 0,-5.73437 4.64453,-10.3789 10.375,-10.3789 z m 9.91016,9.5625 c 0,-5.02344 -4.07031,-9.09766 -9.09766,-9.09766 -5.02734,0 -9.09765,4.07422 -9.09765,9.09766 0,5.02734 4.07031,9.09765 9.09765,9.09765 5.02735,0 9.09766,-4.07031 9.09766,-9.09765 z m 0,0"
       fill="#569956"
       id="path614" />
    <path
       d="m 209.65625,160.27344 c 0,5.02734 -4.07422,9.09765 -9.09766,9.09765 -5.02343,0 -9.09765,-4.07031 -9.09765,-9.09765 0,-5.02344 4.07422,-9.09766 9.09765,-9.09766 5.02344,0 9.09766,4.07422 9.09766,9.09766 z m 0,0"
       fill="#69ba6c"
       id="path616" />
    <path
       d="m 2101.2109,2652.8016 c 0,-57.2657 -46.4453,-103.75 -103.75,-103.75 -57.3046,0 -103.75,46.4843 -103.75,103.75 0,57.3437 46.4454,103.789 103.75,103.789 57.3047,0 103.75,-46.4453 103.75,-103.789 z m 0,0"
       transform="matrix(0.1,0,0,-0.1,0,426.37)"
       fill="none"
       stroke-width="4.807"
       stroke="#000000"
       stroke-miterlimit="10"
       id="path618" />
    <g
       clip-path="url(#svg840185315807tikz_00001bb)"
       id="g622">
      <use
         xlink:href="#svg840185315807tikz_00001bc"
         transform="translate(200,153)"
         mask="url(#svg840185315807tikz_00001bd)"
         id="use620"
         x="0"
         y="0"
         width="100%"
         height="100%" />
    </g>
    <path
       d="m 181.61328,148.5 c 5.73047,0 10.375,4.64453 10.375,10.375 0,5.73047 -4.64453,10.375 -10.375,10.375 -5.73047,0 -10.375,-4.64453 -10.375,-10.375 0,-5.73047 4.64453,-10.375 10.375,-10.375 z m 9.91016,9.5625 c 0,-5.02734 -4.07422,-9.09766 -9.09766,-9.09766 -5.02734,0 -9.09766,4.07032 -9.09766,9.09766 0,5.02734 4.07032,9.09766 9.09766,9.09766 5.02344,0 9.09766,-4.07032 9.09766,-9.09766 z m 0,0"
       fill="#cb4dce"
       id="path624" />
    <path
       d="m 191.52344,158.0625 c 0,5.02344 -4.07422,9.09766 -9.09766,9.09766 -5.02344,0 -9.09766,-4.07422 -9.09766,-9.09766 0,-5.02344 4.07422,-9.09766 9.09766,-9.09766 5.02344,0 9.09766,4.07422 9.09766,9.09766 z m 0,0"
       fill="#fa51f9"
       id="path626" />
    <path
       d="m 1919.8828,2674.95 c 0,-57.3047 -46.4453,-103.75 -103.75,-103.75 -57.3047,0 -103.75,46.4453 -103.75,103.75 0,57.3047 46.4453,103.75 103.75,103.75 57.3047,0 103.75,-46.4453 103.75,-103.75 z m 0,0"
       transform="matrix(0.1,0,0,-0.1,0,426.37)"
       fill="none"
       stroke-width="4.807"
       stroke="#000000"
       stroke-miterlimit="10"
       id="path628" />
    <g
       clip-path="url(#svg840185315807tikz_00001be)"
       id="g632">
      <use
         xlink:href="#svg840185315807tikz_00001bf"
         transform="translate(182,151)"
         mask="url(#svg840185315807tikz_00001bg)"
         id="use630"
         x="0"
         y="0"
         width="100%"
         height="100%" />
    </g>
    <path
       d="m 200.3125,157.4375 c 5.73047,0 10.375,4.64453 10.375,10.375 0,5.73047 -4.64453,10.375 -10.375,10.375 -5.72656,0 -10.375,-4.64453 -10.375,-10.375 0,-5.73047 4.64844,-10.375 10.375,-10.375 z M 210.22266,167 c 0,-5.02734 -4.07032,-9.09766 -9.09766,-9.09766 -5.02344,0 -9.09766,4.07032 -9.09766,9.09766 0,5.02344 4.07422,9.09766 9.09766,9.09766 5.02734,0 9.09766,-4.07422 9.09766,-9.09766 z m 0,0"
       fill="#cb4dce"
       id="path634" />
    <path
       d="m 209.95312,167.26953 c 0,5.02734 -4.07421,9.09766 -9.09765,9.09766 -5.02344,0 -9.09766,-4.07032 -9.09766,-9.09766 0,-5.02344 4.07422,-9.09766 9.09766,-9.09766 5.02344,0 9.09765,4.07422 9.09765,9.09766 z m 0,0"
       fill="#fa51f9"
       id="path636" />
    <path
       d="m 2106.875,2585.575 c 0,-57.3047 -46.4453,-103.75 -103.75,-103.75 -57.3047,0 -103.75,46.4453 -103.75,103.75 0,57.3047 46.4453,103.75 103.75,103.75 57.3047,0 103.75,-46.4453 103.75,-103.75 z m 0,0"
       transform="matrix(0.1,0,0,-0.1,0,426.37)"
       fill="none"
       stroke-width="4.807"
       stroke="#000000"
       stroke-miterlimit="10"
       id="path638" />
    <g
       clip-path="url(#svg840185315807tikz_00001bh)"
       id="g642">
      <use
         xlink:href="#svg840185315807tikz_00001bi"
         transform="translate(199,161)"
         mask="url(#svg840185315807tikz_00001bj)"
         id="use640"
         x="0"
         y="0"
         width="100%"
         height="100%" />
    </g>
    <path
       d="m 189.86328,155.70703 c 5.73047,0 10.375,4.64453 10.375,10.375 0,5.72656 -4.64453,10.375 -10.375,10.375 -5.73047,0 -10.375,-4.64844 -10.375,-10.375 0,-5.73047 4.64453,-10.375 10.375,-10.375 z m 9.91016,9.5625 c 0,-5.02734 -4.07032,-9.09766 -9.09766,-9.09766 -5.02344,0 -9.09766,4.07032 -9.09766,9.09766 0,5.02344 4.07422,9.09375 9.09766,9.09375 5.02734,0.004 9.09766,-4.07031 9.09766,-9.09375 z m 0,0"
       fill="#569956"
       id="path644" />
    <path
       d="m 199.77344,165.26953 c 0,5.02344 -4.07032,9.09375 -9.09766,9.09375 -5.02344,0 -9.09766,-4.07031 -9.09766,-9.09375 0,-5.02734 4.07422,-9.09766 9.09766,-9.09766 5.02734,0 9.09766,4.07032 9.09766,9.09766 z m 0,0"
       fill="#69ba6c"
       id="path646" />
    <path
       d="m 2002.3828,2602.8797 c 0,-57.3047 -46.4453,-103.75 -103.75,-103.75 -57.3047,0 -103.75,46.4453 -103.75,103.75 0,57.3047 46.4453,103.75 103.75,103.75 57.3047,0 103.75,-46.4453 103.75,-103.75 z m 0,0"
       transform="matrix(0.1,0,0,-0.1,0,426.37)"
       fill="none"
       stroke-width="4.807"
       stroke="#000000"
       stroke-miterlimit="10"
       id="path648" />
    <g
       clip-path="url(#svg840185315807tikz_00001bk)"
       id="g652">
      <use
         xlink:href="#svg840185315807tikz_00001bl"
         transform="translate(190,158)"
         mask="url(#svg840185315807tikz_00001bm)"
         id="use650"
         x="0"
         y="0"
         width="100%"
         height="100%" />
    </g>
    <path
       d="m 182.65625,165.92187 c 5.73047,0 10.375,4.64454 10.375,10.375 0,5.73047 -4.64453,10.375 -10.375,10.375 -5.73047,0 -10.375,-4.64453 -10.375,-10.375 0,-5.73046 4.64453,-10.375 10.375,-10.375 z m 9.91016,9.5625 c 0,-5.02734 -4.07422,-9.09765 -9.09766,-9.09765 -5.02734,0 -9.09766,4.07031 -9.09766,9.09765 0,5.02344 4.07032,9.09766 9.09766,9.09766 5.02344,0 9.09766,-4.07422 9.09766,-9.09766 z m 0,0"
       fill="#569956"
       id="path654" />
    <path
       d="m 192.56641,175.48437 c 0,5.02344 -4.07422,9.09766 -9.09766,9.09766 -5.02344,0 -9.09766,-4.07422 -9.09766,-9.09766 0,-5.02343 4.07422,-9.09765 9.09766,-9.09765 5.02344,0 9.09766,4.07422 9.09766,9.09765 z m 0,0"
       fill="#69ba6c"
       id="path656" />
    <path
       d="m 1930.3125,2500.7312 c 0,-57.3046 -46.4453,-103.75 -103.75,-103.75 -57.3047,0 -103.75,46.4454 -103.75,103.75 0,57.3047 46.4453,103.75 103.75,103.75 57.3047,0 103.75,-46.4453 103.75,-103.75 z m 0,0"
       transform="matrix(0.1,0,0,-0.1,0,426.37)"
       fill="none"
       stroke-width="4.807"
       stroke="#000000"
       stroke-miterlimit="10"
       id="path658" />
    <g
       clip-path="url(#svg840185315807tikz_00001bn)"
       id="g662">
      <use
         xlink:href="#svg840185315807tikz_00001bo"
         transform="translate(183,169)"
         mask="url(#svg840185315807tikz_00001bp)"
         id="use660"
         x="0"
         y="0"
         width="100%"
         height="100%" />
    </g>
    <path
       d="m 178.26172,157.62891 c 5.73047,0 10.375,4.64453 10.375,10.375 0,5.73046 -4.64453,10.375 -10.375,10.375 -5.73047,0 -10.375,-4.64454 -10.375,-10.375 0,-5.73047 4.64453,-10.375 10.375,-10.375 z m 9.91015,9.5625 c 0,-5.02735 -4.07031,-9.09766 -9.09765,-9.09766 -5.02344,0 -9.09766,4.07031 -9.09766,9.09766 0,5.02343 4.07422,9.09765 9.09766,9.09765 5.02734,0 9.09765,-4.07422 9.09765,-9.09765 z m 0,0"
       fill="#569956"
       id="path664" />
    <path
       d="m 187.90234,167.46484 c 0,5.01953 -4.07422,9.09375 -9.09765,9.09375 -5.02735,0 -9.10157,-4.07422 -9.10157,-9.09375 0,-5.02734 4.07422,-9.10156 9.10157,-9.10156 5.02343,0 9.09765,4.07422 9.09765,9.10156 z m 0,0"
       fill="#69ba6c"
       id="path666" />
    <path
       d="m 1886.3672,2583.6609 c 0,-57.3047 -46.4453,-103.75 -103.75,-103.75 -57.3047,0 -103.75,46.4453 -103.75,103.75 0,57.3047 46.4453,103.75 103.75,103.75 57.3047,0 103.75,-46.4453 103.75,-103.75 z m 0,0"
       transform="matrix(0.1,0,0,-0.1,0,426.37)"
       fill="none"
       stroke-width="4.807"
       stroke="#000000"
       stroke-miterlimit="10"
       id="path668" />
    <g
       clip-path="url(#svg840185315807tikz_00001bq)"
       id="g672">
      <use
         xlink:href="#svg840185315807tikz_00001br"
         transform="translate(177,161)"
         mask="url(#svg840185315807tikz_00001bs)"
         id="use670"
         x="0"
         y="0"
         width="100%"
         height="100%" />
    </g>
    <path
       d="m 192.01562,165.98047 c 5.72657,0 10.375,4.64844 10.375,10.3789 0,5.72657 -4.64843,10.375 -10.375,10.375 -5.73046,0 -10.375,-4.64843 -10.375,-10.375 0,-5.73046 4.64454,-10.3789 10.375,-10.3789 z m 9.91016,9.5664 c 0,-5.02734 -4.07422,-9.10156 -9.09766,-9.10156 -5.02734,0 -9.09765,4.07422 -9.09765,9.10156 0,5.02344 4.07031,9.09375 9.09765,9.09375 5.02344,0 9.09766,-4.07031 9.09766,-9.09375 z m 0,0"
       fill="#cb4dce"
       id="path674" />
    <path
       d="m 201.92578,175.54687 c 0,5.02344 -4.07422,9.09375 -9.09766,9.09375 -5.02343,0 -9.09765,-4.07031 -9.09765,-9.09375 0,-5.02734 4.07422,-9.10156 9.09765,-9.10156 5.02344,0 9.09766,4.07422 9.09766,9.10156 z m 0,0"
       fill="#fa51f9"
       id="path676" />
    <path
       d="m 2023.9063,2500.1062 c 0,-57.3046 -46.4454,-103.75 -103.75,-103.75 -57.3047,0 -103.75,46.4454 -103.75,103.75 0,57.3047 46.4453,103.7891 103.75,103.7891 57.3046,0 103.75,-46.4844 103.75,-103.7891 z m 0,0"
       transform="matrix(0.1,0,0,-0.1,0,426.37)"
       fill="none"
       stroke-width="4.807"
       stroke="#000000"
       stroke-miterlimit="10"
       id="path678" />
    <g
       clip-path="url(#svg840185315807tikz_00001bt)"
       id="g682">
      <use
         xlink:href="#svg840185315807tikz_00001bu"
         transform="translate(192,169)"
         mask="url(#svg840185315807tikz_00001bv)"
         id="use680"
         x="0"
         y="0"
         width="100%"
         height="100%" />
    </g>
    <g
       clip-path="url(#svg840185315807tikz_00001bB)"
       id="g700">
      <path
         d="M 2980.1953,3183.5047 C 2858.2422,3423.8953 2256.5234,3363.6609 1636.2109,3048.9734 1015.8594,2734.2859 611.83594,2284.2859 733.78906,2043.8953 c 121.95313,-240.3906 723.67184,-180.1562 1344.02344,134.5313 620.3516,314.6875 1024.3359,764.6484 902.3828,1005.0781 z m 0,0"
         transform="matrix(0.1,0,0,-0.1,0,426.37)"
         fill="none"
         stroke-width="12.018"
         stroke="#aaaaaa"
         stroke-miterlimit="10"
         id="path698" />
    </g>
    <g
       clip-path="url(#svg840185315807tikz_00001bC)"
       id="g704">
      <path
         d="m 2041.6016,3065.8094 c -644.2188,262.6953 -1249.02348,273.2422 -1350.82035,23.5937 -101.79688,-249.6484 337.92965,-665 982.14845,-927.6953 644.2578,-262.6953 1249.0234,-273.2812 1350.8203,-23.6328 101.7969,249.6484 -337.8906,665 -982.1484,927.7344 z m 0,0"
         transform="matrix(0.1,0,0,-0.1,0,426.37)"
         fill="none"
         stroke-width="12.019"
         stroke="#aaaaaa"
         stroke-miterlimit="10"
         id="path702" />
    </g>
    <g
       clip-path="url(#svg840185315807tikz_00001bD)"
       id="g708">
      <path
         d="m 2327.5391,2744.8719 c -187.3438,670.0781 -549.7657,1154.414 -809.4532,1081.7968 -259.6484,-72.6171 -318.2812,-674.6484 -130.8984,-1344.7265 187.3438,-670.0781 549.7656,-1154.4141 809.4141,-1081.8359 259.6875,72.6171 318.3203,674.6874 130.9375,1344.7656 z m 0,0"
         transform="matrix(0.1,0,0,-0.1,0,426.37)"
         fill="none"
         stroke-width="12.02"
         stroke="#aaaaaa"
         stroke-miterlimit="10"
         id="path706" />
    </g>
    <use
       xlink:href="#svg840185315807tikz_00001bE"
       transform="translate(278,163)"
       id="use710"
       x="0"
       y="0"
       width="100%"
       height="100%" />
    <use
       xlink:href="#svg840185315807tikz_00001bF"
       transform="translate(232,241)"
       id="use712"
       x="0"
       y="0"
       width="100%"
       height="100%" />
    <use
       xlink:href="#svg840185315807tikz_00001bG"
       transform="translate(123,226)"
       id="use714"
       x="0"
       y="0"
       width="100%"
       height="100%" />
    <g
       clip-path="url(#svg840185315807tikz_00001bH)"
       id="g718">
      <use
         xlink:href="#svg840185315807tikz_00001bI"
         transform="translate(67,138)"
         id="use716"
         x="0"
         y="0"
         width="100%"
         height="100%" />
    </g>
    <use
       xlink:href="#svg840185315807tikz_00001bJ"
       transform="translate(125,54)"
       id="use720"
       x="0"
       y="0"
       width="100%"
       height="100%" />
    <path
       d="m 276.70937,79.741194 -3.88063,6.423616 -5.20466,-6.304985 v 8.308521 l -7.28651,-3.330438 4.26825,6.291804 -5.6402,3.831326 6.70291,-0.514068 -3.0444,7.60992 5.21336,-4.354175 0.72735,6.590575 4.56878,-6.278622 c 0,0 2.28656,2.073842 2.439,2.882282 0.15244,0.81284 0.60976,-5.935912 0.60976,-5.935912 h 3.80658 l -1.8249,-4.754007 2.73953,-4.042221 h -4.19422 z m 0,0"
       fill="#ffc950"
       id="path722"
       style="stroke-width:1.11987" />
    <path
       d="m 2781.6406,3361.6297 c 341.2891,124.2187 590.0391,124.2187 884.2969,17.1094"
       transform="matrix(0.1,0,0,-0.1,0,426.37)"
       fill="none"
       stroke-width="7.97"
       stroke-linecap="round"
       stroke-linejoin="round"
       stroke="#000"
       stroke-miterlimit="10"
       id="path746"
       style="fill:none;fill-opacity:1;stroke:#ca2e00;stroke-opacity:1" />
    <use
       xlink:href="#svg840185315807tikz_00001bR"
       transform="translate(360,81)"
       id="use748"
       style="fill:none;fill-opacity:1;stroke:#ca2e00;stroke-opacity:1"
       x="0"
       y="0"
       width="100%"
       height="100%" />
    <text
       xml:space="preserve"
       style="font-style:normal;font-weight:normal;font-size:20.7971px;line-height:1.25;font-family:sans-serif;fill:#000000;fill-opacity:1;stroke:none;stroke-width:0.519928"
       x="64.266685"
       y="165.83447"
       id="text3254"
       transform="scale(1.0767993,0.92867817)"><tspan
         sodipodi:role="line"
         id="tspan3252"
         style="stroke-width:0.519928"
         x="64.266685"
         y="165.83447">e</tspan></text>
    <text
       xml:space="preserve"
       style="font-style:normal;font-weight:normal;font-size:20.7971px;line-height:1.25;font-family:sans-serif;fill:#000000;fill-opacity:1;stroke:none;stroke-width:0.519928"
       x="116.54002"
       y="259.22198"
       id="text9636"
       transform="scale(1.0767993,0.92867817)"><tspan
         sodipodi:role="line"
         id="tspan9634"
         style="stroke-width:0.519928"
         x="116.54002"
         y="259.22198">e</tspan></text>
    <text
       xml:space="preserve"
       style="font-style:normal;font-weight:normal;font-size:20.7971px;line-height:1.25;font-family:sans-serif;fill:#000000;fill-opacity:1;stroke:none;stroke-width:0.519928"
       x="217.94807"
       y="274.89368"
       id="text9640"
       transform="scale(1.0767993,0.92867817)"><tspan
         sodipodi:role="line"
         id="tspan9638"
         style="stroke-width:0.519928"
         x="217.94807"
         y="274.89368">e</tspan></text>
    <text
       xml:space="preserve"
       style="font-style:normal;font-weight:normal;font-size:20.7971px;line-height:1.25;font-family:sans-serif;fill:#000000;fill-opacity:1;stroke:none;stroke-width:0.519928"
       x="260.53989"
       y="191.12189"
       id="text9644"
       transform="scale(1.0767993,0.92867817)"><tspan
         sodipodi:role="line"
         id="tspan9642"
         style="stroke-width:0.519928"
         x="260.53989"
         y="191.12189">e</tspan></text>
    <text
       xml:space="preserve"
       style="font-style:normal;font-weight:normal;font-size:20.7971px;line-height:1.25;font-family:sans-serif;fill:#000000;fill-opacity:1;stroke:none;stroke-width:0.519928"
       x="118.66864"
       y="73.830162"
       id="text9648"
       transform="scale(1.0767993,0.92867817)"><tspan
         sodipodi:role="line"
         id="tspan9646"
         style="stroke-width:0.519928"
         x="118.66864"
         y="73.830162">e</tspan></text>
    <text
       xml:space="preserve"
       style="font-style:normal;font-weight:normal;font-size:20.7971px;line-height:1.25;font-family:sans-serif;fill:#000000;fill-opacity:1;stroke:none;stroke-width:0.519928"
       x="345.87518"
       y="112.16664"
       id="text9652"
       transform="scale(1.0767993,0.92867817)"><tspan
         sodipodi:role="line"
         id="tspan9650"
         style="stroke-width:0.519928"
         x="345.87518"
         y="112.16664">e</tspan></text>
  </g>
</svg>
